G75*
%MOIN*%
%OFA0B0*%
%FSLAX24Y24*%
%IPPOS*%
%LPD*%
%AMOC8*
5,1,8,0,0,1.08239X$1,22.5*
%
%ADD10C,0.0907*%
%ADD11R,0.0552X0.0222*%
%ADD12R,0.0470X0.0352*%
%ADD13C,0.0595*%
%ADD14R,0.0513X0.0474*%
%ADD15C,0.0390*%
D10*
X000680Y000680D03*
X001680Y000680D03*
X002680Y000680D03*
X003680Y000680D03*
X004680Y000680D03*
X005680Y000680D03*
X006680Y000680D03*
X007680Y000680D03*
X008680Y000680D03*
X009680Y000680D03*
X010680Y000680D03*
X011680Y000680D03*
X012680Y000680D03*
X013680Y000680D03*
X014680Y000680D03*
X015680Y000680D03*
X016680Y000680D03*
X017680Y000680D03*
X018680Y000680D03*
X019680Y000680D03*
X019680Y006680D03*
X018680Y006680D03*
X017680Y006680D03*
X016680Y006680D03*
X015680Y006680D03*
X014680Y006680D03*
X013680Y006680D03*
X012680Y006680D03*
X011680Y006680D03*
X010680Y006680D03*
X009680Y006680D03*
X008680Y006680D03*
X007680Y006680D03*
X006680Y006680D03*
X005680Y006680D03*
X004680Y006680D03*
X003680Y006680D03*
X002680Y006680D03*
X001680Y006680D03*
X000680Y006680D03*
D11*
X008302Y005031D03*
X008302Y004835D03*
X008302Y004638D03*
X008302Y004441D03*
X008302Y004244D03*
X008302Y004047D03*
X008302Y003850D03*
X008302Y003653D03*
X008302Y003457D03*
X008302Y003260D03*
X008302Y003063D03*
X008302Y002866D03*
X008302Y002669D03*
X008302Y002472D03*
X008302Y002275D03*
X008302Y002079D03*
X016058Y002079D03*
X016058Y002275D03*
X016058Y002472D03*
X016058Y002669D03*
X016058Y002866D03*
X016058Y003063D03*
X016058Y003260D03*
X016058Y003457D03*
X016058Y003653D03*
X016058Y003850D03*
X016058Y004047D03*
X016058Y004244D03*
X016058Y004441D03*
X016058Y004638D03*
X016058Y004835D03*
X016058Y005031D03*
D12*
X005063Y005180D03*
X005063Y004806D03*
X004043Y004806D03*
X004043Y005554D03*
X005063Y005554D03*
X005063Y004054D03*
X005063Y003680D03*
X004043Y004054D03*
X004043Y003306D03*
X005063Y003306D03*
X005063Y002554D03*
X005063Y002180D03*
X005063Y001806D03*
X004043Y001806D03*
X004043Y002554D03*
D13*
X001180Y003555D03*
D14*
X002220Y003305D03*
X002890Y003305D03*
X006470Y003680D03*
X007140Y003680D03*
X002890Y004805D03*
X002220Y004805D03*
X002220Y001805D03*
X002890Y001805D03*
D15*
X003555Y001806D03*
X003555Y002555D03*
X005555Y002180D03*
X006555Y001805D03*
X007305Y002180D03*
X007680Y001930D03*
X007305Y002555D03*
X007680Y002805D03*
X009055Y003555D03*
X010055Y003430D03*
X011305Y003180D03*
X011680Y003430D03*
X010930Y002930D03*
X007555Y004055D03*
X009430Y004305D03*
X009930Y004305D03*
X010430Y004305D03*
X014430Y005555D03*
X015055Y005805D03*
X017430Y003680D03*
X018055Y003680D03*
X005555Y003680D03*
X003555Y004055D03*
X003555Y005555D03*
X005180Y006055D03*
M02*
