G75*
%MOIN*%
%OFA0B0*%
%FSLAX24Y24*%
%IPPOS*%
%LPD*%
%AMOC8*
5,1,8,0,0,1.08239X$1,22.5*
%
%ADD10C,0.0000*%
%ADD11C,0.0060*%
%ADD12C,0.0100*%
%ADD13R,0.0420X0.0120*%
%ADD14C,0.0080*%
%ADD15C,0.0004*%
%ADD16C,0.0050*%
%ADD17C,0.0030*%
%ADD18R,0.0295X0.0130*%
%ADD19R,0.0200X0.0200*%
%ADD20C,0.0040*%
%ADD21R,0.0197X0.0374*%
D10*
X000180Y000180D02*
X000180Y007180D01*
X020180Y007180D01*
X020180Y000180D01*
X000180Y000180D01*
D11*
X000180Y001030D02*
X000180Y003230D01*
X000219Y003232D01*
X000258Y003238D01*
X000296Y003247D01*
X000333Y003260D01*
X000369Y003277D01*
X000402Y003297D01*
X000434Y003321D01*
X000463Y003347D01*
X000489Y003376D01*
X000513Y003408D01*
X000533Y003441D01*
X000550Y003477D01*
X000563Y003514D01*
X000572Y003552D01*
X000578Y003591D01*
X000580Y003630D01*
X000578Y003669D01*
X000572Y003708D01*
X000563Y003746D01*
X000550Y003783D01*
X000533Y003819D01*
X000513Y003852D01*
X000489Y003884D01*
X000463Y003913D01*
X000434Y003939D01*
X000402Y003963D01*
X000369Y003983D01*
X000333Y004000D01*
X000296Y004013D01*
X000258Y004022D01*
X000219Y004028D01*
X000180Y004030D01*
X000180Y006330D01*
X020180Y006330D01*
X020180Y001030D01*
X000180Y001030D01*
X000991Y003960D02*
X001218Y003960D01*
X001275Y004017D01*
X001275Y004130D01*
X001218Y004187D01*
X000991Y004187D02*
X000935Y004130D01*
X000935Y004017D01*
X000991Y003960D01*
X001048Y004328D02*
X000935Y004442D01*
X001048Y004555D01*
X001275Y004555D01*
X001105Y004555D02*
X001105Y004328D01*
X001048Y004328D02*
X001275Y004328D01*
X001218Y004697D02*
X001275Y004753D01*
X001275Y004867D01*
X001218Y004923D01*
X001162Y004923D01*
X001105Y004867D01*
X001105Y004753D01*
X001048Y004697D01*
X000991Y004697D01*
X000935Y004753D01*
X000935Y004867D01*
X000991Y004923D01*
X000935Y005065D02*
X000935Y005178D01*
X000935Y005122D02*
X001275Y005122D01*
X001275Y005178D02*
X001275Y005065D01*
X001275Y005310D02*
X000935Y005310D01*
X001275Y005537D01*
X000935Y005537D01*
X000935Y005679D02*
X001275Y005679D01*
X001105Y005679D02*
X001105Y005906D01*
X000935Y005906D02*
X001275Y005906D01*
X006942Y005900D02*
X006942Y005560D01*
X007169Y005560D02*
X007169Y005730D01*
X007112Y005787D01*
X006998Y005787D01*
X006942Y005730D01*
X007310Y005787D02*
X007423Y005787D01*
X007367Y005844D02*
X007367Y005617D01*
X007423Y005560D01*
X007612Y005617D02*
X007669Y005560D01*
X007612Y005617D02*
X007612Y005844D01*
X007556Y005787D02*
X007669Y005787D01*
X007801Y005787D02*
X007971Y005787D01*
X008028Y005730D01*
X008028Y005617D01*
X007971Y005560D01*
X007801Y005560D01*
X007801Y005447D02*
X007801Y005787D01*
X008169Y005730D02*
X008226Y005787D01*
X008396Y005787D01*
X008340Y005673D02*
X008226Y005673D01*
X008169Y005730D01*
X008340Y005673D02*
X008396Y005617D01*
X008340Y005560D01*
X008169Y005560D01*
X008538Y005560D02*
X008538Y005617D01*
X008594Y005617D01*
X008594Y005560D01*
X008538Y005560D01*
X008722Y005560D02*
X008949Y005900D01*
X009090Y005560D02*
X009317Y005900D01*
X009459Y005730D02*
X009515Y005787D01*
X009685Y005787D01*
X009685Y005503D01*
X009629Y005447D01*
X009572Y005447D01*
X009515Y005560D02*
X009685Y005560D01*
X009827Y005560D02*
X009940Y005560D01*
X009884Y005560D02*
X009884Y005787D01*
X009827Y005787D01*
X010072Y005787D02*
X010186Y005787D01*
X010129Y005844D02*
X010129Y005617D01*
X010186Y005560D01*
X010318Y005560D02*
X010318Y005900D01*
X010375Y005787D02*
X010488Y005787D01*
X010545Y005730D01*
X010545Y005560D01*
X010686Y005617D02*
X010743Y005560D01*
X010913Y005560D01*
X010913Y005787D01*
X011055Y005787D02*
X011225Y005787D01*
X011281Y005730D01*
X011281Y005617D01*
X011225Y005560D01*
X011055Y005560D01*
X011055Y005900D01*
X010686Y005787D02*
X010686Y005617D01*
X010375Y005787D02*
X010318Y005730D01*
X009884Y005900D02*
X009884Y005957D01*
X009459Y005730D02*
X009459Y005617D01*
X009515Y005560D01*
X008594Y005730D02*
X008538Y005730D01*
X008538Y005787D01*
X008594Y005787D01*
X008594Y005730D01*
X011423Y005617D02*
X011423Y005560D01*
X011480Y005560D01*
X011480Y005617D01*
X011423Y005617D01*
X011607Y005617D02*
X011664Y005560D01*
X011834Y005560D01*
X011975Y005617D02*
X012032Y005560D01*
X012146Y005560D01*
X012202Y005617D01*
X012202Y005730D01*
X012146Y005787D01*
X012032Y005787D01*
X011975Y005730D01*
X011975Y005617D01*
X011664Y005787D02*
X011607Y005730D01*
X011607Y005617D01*
X011664Y005787D02*
X011834Y005787D01*
X012344Y005787D02*
X012400Y005787D01*
X012457Y005730D01*
X012514Y005787D01*
X012571Y005730D01*
X012571Y005560D01*
X012457Y005560D02*
X012457Y005730D01*
X012344Y005787D02*
X012344Y005560D01*
X012712Y005560D02*
X012939Y005900D01*
X013137Y005844D02*
X013137Y005617D01*
X013194Y005560D01*
X013326Y005617D02*
X013326Y005730D01*
X013383Y005787D01*
X013553Y005787D01*
X013694Y005787D02*
X013751Y005787D01*
X013751Y005560D01*
X013694Y005560D02*
X013808Y005560D01*
X013940Y005617D02*
X013940Y005730D01*
X013996Y005787D01*
X014167Y005787D01*
X014308Y005787D02*
X014365Y005787D01*
X014365Y005560D01*
X014421Y005560D02*
X014308Y005560D01*
X014167Y005560D02*
X013996Y005560D01*
X013940Y005617D01*
X014167Y005560D02*
X014167Y005900D01*
X014365Y005900D02*
X014365Y005957D01*
X014554Y005730D02*
X014610Y005787D01*
X014780Y005787D01*
X014922Y005787D02*
X014979Y005787D01*
X014979Y005560D01*
X015035Y005560D02*
X014922Y005560D01*
X014780Y005560D02*
X014610Y005560D01*
X014554Y005617D01*
X014554Y005730D01*
X014780Y005900D02*
X014780Y005560D01*
X015224Y005617D02*
X015281Y005560D01*
X015224Y005617D02*
X015224Y005844D01*
X015167Y005787D02*
X015281Y005787D01*
X015413Y005560D02*
X015640Y005900D01*
X015838Y005787D02*
X015951Y005787D01*
X016008Y005730D01*
X016008Y005560D01*
X015838Y005560D01*
X015781Y005617D01*
X015838Y005673D01*
X016008Y005673D01*
X016150Y005673D02*
X016150Y005617D01*
X016206Y005560D01*
X016320Y005560D01*
X016376Y005617D01*
X016376Y005673D01*
X016320Y005730D01*
X016206Y005730D01*
X016150Y005787D01*
X016150Y005844D01*
X016206Y005900D01*
X016320Y005900D01*
X016376Y005844D01*
X016376Y005787D01*
X016320Y005730D01*
X016206Y005730D02*
X016150Y005673D01*
X016518Y005730D02*
X016745Y005730D01*
X016886Y005730D02*
X016943Y005787D01*
X017113Y005787D01*
X017056Y005673D02*
X016943Y005673D01*
X016886Y005730D01*
X017056Y005673D02*
X017113Y005617D01*
X017056Y005560D01*
X016886Y005560D01*
X017255Y005560D02*
X017255Y005787D01*
X017368Y005787D02*
X017255Y005673D01*
X017368Y005787D02*
X017425Y005787D01*
X017618Y005787D02*
X017732Y005787D01*
X017788Y005730D01*
X017788Y005560D01*
X017618Y005560D01*
X017561Y005617D01*
X017618Y005673D01*
X017788Y005673D01*
X017930Y005560D02*
X017930Y005787D01*
X017987Y005787D01*
X018043Y005730D01*
X018100Y005787D01*
X018157Y005730D01*
X018157Y005560D01*
X018043Y005560D02*
X018043Y005730D01*
X018298Y005730D02*
X018298Y005617D01*
X018355Y005560D01*
X018468Y005560D01*
X018525Y005617D01*
X018525Y005673D01*
X018468Y005730D01*
X018298Y005730D01*
X018412Y005844D01*
X018525Y005900D01*
X018666Y005730D02*
X018837Y005900D01*
X018837Y005560D01*
X019035Y005560D02*
X019035Y005900D01*
X019342Y005900D02*
X019342Y005560D01*
X019512Y005560D01*
X019569Y005617D01*
X019569Y005730D01*
X019512Y005787D01*
X019342Y005787D01*
X019205Y005787D02*
X019035Y005673D01*
X019205Y005560D01*
X018893Y005730D02*
X018666Y005730D01*
X014979Y005900D02*
X014979Y005957D01*
X013751Y005957D02*
X013751Y005900D01*
X013553Y005900D02*
X013553Y005560D01*
X013383Y005560D01*
X013326Y005617D01*
X013194Y005787D02*
X013080Y005787D01*
D12*
X015723Y005090D02*
X015723Y002020D01*
X008637Y002020D01*
X008637Y005090D01*
X015723Y005090D01*
X008791Y004736D02*
X008793Y004761D01*
X008799Y004785D01*
X008808Y004807D01*
X008821Y004828D01*
X008837Y004847D01*
X008856Y004863D01*
X008877Y004876D01*
X008899Y004885D01*
X008923Y004891D01*
X008948Y004893D01*
X008973Y004891D01*
X008997Y004885D01*
X009019Y004876D01*
X009040Y004863D01*
X009059Y004847D01*
X009075Y004828D01*
X009088Y004807D01*
X009097Y004785D01*
X009103Y004761D01*
X009105Y004736D01*
X009103Y004711D01*
X009097Y004687D01*
X009088Y004665D01*
X009075Y004644D01*
X009059Y004625D01*
X009040Y004609D01*
X009019Y004596D01*
X008997Y004587D01*
X008973Y004581D01*
X008948Y004579D01*
X008923Y004581D01*
X008899Y004587D01*
X008877Y004596D01*
X008856Y004609D01*
X008837Y004625D01*
X008821Y004644D01*
X008808Y004665D01*
X008799Y004687D01*
X008793Y004711D01*
X008791Y004736D01*
D13*
X008410Y004638D03*
X008410Y004835D03*
X008410Y005031D03*
X008410Y004441D03*
X008410Y004244D03*
X008410Y004047D03*
X008410Y003850D03*
X008410Y003653D03*
X008410Y003457D03*
X008410Y003260D03*
X008410Y003063D03*
X008410Y002866D03*
X008410Y002669D03*
X008410Y002472D03*
X008410Y002275D03*
X008410Y002079D03*
X015950Y002079D03*
X015950Y002275D03*
X015950Y002472D03*
X015950Y002669D03*
X015950Y002866D03*
X015950Y003063D03*
X015950Y003260D03*
X015950Y003457D03*
X015950Y003653D03*
X015950Y003850D03*
X015950Y004047D03*
X015950Y004244D03*
X015950Y004441D03*
X015950Y004638D03*
X015950Y004835D03*
X015950Y005031D03*
D14*
X015453Y003815D02*
X015523Y003745D01*
X015523Y003675D01*
X015453Y003605D01*
X015313Y003605D01*
X015243Y003675D01*
X015243Y003745D01*
X015313Y003815D01*
X015453Y003815D01*
X015063Y003745D02*
X014782Y003465D01*
X014852Y003395D01*
X014993Y003395D01*
X015063Y003465D01*
X015063Y003745D01*
X014993Y003815D01*
X014852Y003815D01*
X014782Y003745D01*
X014782Y003465D01*
X014602Y003465D02*
X014532Y003395D01*
X014392Y003395D01*
X014322Y003465D01*
X014602Y003745D01*
X014602Y003465D01*
X014322Y003465D02*
X014322Y003745D01*
X014392Y003815D01*
X014532Y003815D01*
X014602Y003745D01*
X014002Y003815D02*
X013862Y003675D01*
X013681Y003745D02*
X013611Y003815D01*
X013471Y003815D01*
X013401Y003745D01*
X013401Y003465D01*
X013471Y003395D01*
X013611Y003395D01*
X013681Y003465D01*
X013862Y003395D02*
X014142Y003395D01*
X014002Y003395D02*
X014002Y003815D01*
X013221Y003815D02*
X013081Y003745D01*
X012941Y003605D01*
X013151Y003605D01*
X013221Y003535D01*
X013221Y003465D01*
X013151Y003395D01*
X013011Y003395D01*
X012941Y003465D01*
X012941Y003605D01*
X012761Y003535D02*
X012761Y003465D01*
X012691Y003395D01*
X012550Y003395D01*
X012480Y003465D01*
X012550Y003605D02*
X012691Y003605D01*
X012761Y003535D01*
X012550Y003605D02*
X012480Y003675D01*
X012480Y003745D01*
X012550Y003815D01*
X012691Y003815D01*
X012761Y003745D01*
X012300Y003675D02*
X012300Y003395D01*
X012020Y003395D02*
X012020Y003675D01*
X012160Y003815D01*
X012300Y003675D01*
X012300Y003605D02*
X012020Y003605D01*
X015243Y003535D02*
X015243Y003465D01*
X015313Y003395D01*
X015453Y003395D01*
X015523Y003465D01*
X015523Y003535D01*
X015453Y003605D01*
X015313Y003605D02*
X015243Y003535D01*
D15*
X005067Y003680D02*
X005063Y003680D01*
X005063Y005180D02*
X005067Y005180D01*
X005063Y002180D02*
X005067Y002180D01*
D16*
X004655Y002090D02*
X004655Y002000D01*
X004610Y001955D01*
X004430Y002135D01*
X004610Y002135D01*
X004655Y002090D01*
X004430Y002135D02*
X004385Y002090D01*
X004385Y002000D01*
X004430Y001955D01*
X004610Y001955D01*
X004610Y002250D02*
X004430Y002250D01*
X004385Y002295D01*
X004385Y002385D01*
X004430Y002430D01*
X004610Y002250D01*
X004655Y002295D01*
X004655Y002385D01*
X004610Y002430D01*
X004430Y002430D01*
X004240Y002739D02*
X004240Y001621D01*
X004870Y001621D01*
X004870Y002739D01*
X004240Y002739D01*
X004240Y003121D02*
X004240Y004239D01*
X004870Y004239D01*
X004870Y003121D01*
X004240Y003121D01*
X004430Y003455D02*
X004385Y003500D01*
X004385Y003590D01*
X004430Y003635D01*
X004610Y003455D01*
X004655Y003500D01*
X004655Y003590D01*
X004610Y003635D01*
X004430Y003635D01*
X004430Y003750D02*
X004475Y003750D01*
X004520Y003795D01*
X004520Y003885D01*
X004565Y003930D01*
X004610Y003930D01*
X004655Y003885D01*
X004655Y003795D01*
X004610Y003750D01*
X004565Y003750D01*
X004520Y003795D01*
X004520Y003885D02*
X004475Y003930D01*
X004430Y003930D01*
X004385Y003885D01*
X004385Y003795D01*
X004430Y003750D01*
X004430Y003455D02*
X004610Y003455D01*
X003091Y003760D02*
X003091Y003895D01*
X003045Y003940D01*
X002910Y003940D01*
X002910Y003760D01*
X002796Y003805D02*
X002751Y003760D01*
X002661Y003760D01*
X002616Y003805D01*
X002796Y003985D01*
X002796Y003805D01*
X002616Y003805D02*
X002616Y003985D01*
X002661Y004030D01*
X002751Y004030D01*
X002796Y003985D01*
X002501Y003985D02*
X002321Y003805D01*
X002366Y003760D01*
X002456Y003760D01*
X002501Y003805D01*
X002501Y003985D01*
X002456Y004030D01*
X002366Y004030D01*
X002321Y003985D01*
X002321Y003805D01*
X002207Y003760D02*
X002026Y003760D01*
X002116Y003760D02*
X002116Y004030D01*
X002026Y003940D01*
X004240Y004621D02*
X004240Y005739D01*
X004870Y005739D01*
X004870Y004621D01*
X004240Y004621D01*
X004430Y004955D02*
X004385Y005000D01*
X004385Y005090D01*
X004430Y005135D01*
X004610Y004955D01*
X004655Y005000D01*
X004655Y005090D01*
X004610Y005135D01*
X004430Y005135D01*
X004430Y005250D02*
X004385Y005295D01*
X004385Y005385D01*
X004430Y005430D01*
X004610Y005250D01*
X004655Y005295D01*
X004655Y005385D01*
X004610Y005430D01*
X004430Y005430D01*
X004430Y005250D02*
X004610Y005250D01*
X004610Y004955D02*
X004430Y004955D01*
X003091Y005260D02*
X003091Y005395D01*
X003045Y005440D01*
X002910Y005440D01*
X002910Y005260D01*
X002796Y005305D02*
X002751Y005260D01*
X002661Y005260D01*
X002616Y005305D01*
X002796Y005485D01*
X002796Y005305D01*
X002616Y005305D02*
X002616Y005485D01*
X002661Y005530D01*
X002751Y005530D01*
X002796Y005485D01*
X002501Y005485D02*
X002456Y005530D01*
X002366Y005530D01*
X002321Y005485D01*
X002321Y005305D01*
X002501Y005485D01*
X002501Y005305D01*
X002456Y005260D01*
X002366Y005260D01*
X002321Y005305D01*
X002207Y005260D02*
X002026Y005260D01*
X002116Y005260D02*
X002116Y005530D01*
X002026Y005440D01*
X006276Y004315D02*
X006366Y004405D01*
X006366Y004135D01*
X006276Y004135D02*
X006457Y004135D01*
X006571Y004180D02*
X006751Y004360D01*
X006751Y004180D01*
X006706Y004135D01*
X006616Y004135D01*
X006571Y004180D01*
X006571Y004360D01*
X006616Y004405D01*
X006706Y004405D01*
X006751Y004360D01*
X006866Y004360D02*
X006911Y004405D01*
X007001Y004405D01*
X007046Y004360D01*
X006866Y004180D01*
X006911Y004135D01*
X007001Y004135D01*
X007046Y004180D01*
X007046Y004360D01*
X007160Y004315D02*
X007295Y004315D01*
X007341Y004270D01*
X007341Y004135D01*
X007160Y004135D02*
X007160Y004315D01*
X006866Y004360D02*
X006866Y004180D01*
X002796Y002485D02*
X002751Y002530D01*
X002661Y002530D01*
X002616Y002485D01*
X002616Y002305D01*
X002796Y002485D01*
X002796Y002305D01*
X002751Y002260D01*
X002661Y002260D01*
X002616Y002305D01*
X002501Y002305D02*
X002456Y002260D01*
X002366Y002260D01*
X002321Y002305D01*
X002501Y002485D01*
X002501Y002305D01*
X002321Y002305D02*
X002321Y002485D01*
X002366Y002530D01*
X002456Y002530D01*
X002501Y002485D01*
X002116Y002530D02*
X002116Y002260D01*
X002026Y002260D02*
X002207Y002260D01*
X002026Y002440D02*
X002116Y002530D01*
X002910Y002440D02*
X002910Y002260D01*
X003091Y002260D02*
X003091Y002395D01*
X003045Y002440D01*
X002910Y002440D01*
D17*
X004299Y002684D02*
X004815Y002684D01*
X004815Y001680D01*
X004299Y001680D01*
X004299Y002684D01*
X004299Y003180D02*
X004815Y003180D01*
X004815Y004184D01*
X004299Y004184D01*
X004299Y003180D01*
X004299Y004680D02*
X004815Y004680D01*
X004815Y005684D01*
X004299Y005684D01*
X004299Y004680D01*
D18*
X004140Y004808D03*
X004966Y004808D03*
X004966Y005182D03*
X004966Y005556D03*
X004144Y005556D03*
X004144Y004056D03*
X004966Y004056D03*
X004966Y003682D03*
X004966Y003308D03*
X004140Y003308D03*
X004144Y002556D03*
X004966Y002556D03*
X004966Y002182D03*
X004966Y001808D03*
X004140Y001808D03*
D19*
X001180Y003555D03*
D20*
X002415Y003470D02*
X002695Y003470D01*
X002695Y003135D02*
X002415Y003135D01*
X002415Y001970D02*
X002695Y001970D01*
X002695Y001635D02*
X002415Y001635D01*
X006665Y003510D02*
X006945Y003510D01*
X006945Y003845D02*
X006665Y003845D01*
X002695Y004635D02*
X002415Y004635D01*
X002415Y004970D02*
X002695Y004970D01*
D21*
X002787Y004803D03*
X002327Y004803D03*
X002327Y003303D03*
X002787Y003303D03*
X006577Y003678D03*
X007037Y003678D03*
X002787Y001803D03*
X002327Y001803D03*
M02*
