%
M48
M72
T01C0.0150
T02C0.0315
T03C0.0551
%
T01
X3555Y1806
X3555Y2555
X5555Y2180
X6555Y1805
X7305Y2180
X7680Y1930
X7305Y2555
X7680Y2805
X9055Y3555
X10055Y3430
X11305Y3180
X11680Y3430
X10930Y2930
X7555Y4055
X9430Y4305
X9930Y4305
X10430Y4305
X14430Y5555
X15055Y5805
X17430Y3680
X18055Y3680
X5555Y3680
X3555Y4055
X3555Y5555
X5180Y6055
T02
X1180Y3555
T03
X680Y680
X1680Y680
X2680Y680
X3680Y680
X4680Y680
X5680Y680
X6680Y680
X7680Y680
X8680Y680
X9680Y680
X10680Y680
X11680Y680
X12680Y680
X13680Y680
X14680Y680
X15680Y680
X16680Y680
X17680Y680
X18680Y680
X19680Y680
X19680Y6680
X18680Y6680
X17680Y6680
X16680Y6680
X15680Y6680
X14680Y6680
X13680Y6680
X12680Y6680
X11680Y6680
X10680Y6680
X9680Y6680
X8680Y6680
X7680Y6680
X6680Y6680
X5680Y6680
X4680Y6680
X3680Y6680
X2680Y6680
X1680Y6680
X680Y6680
M30
